<?xml version="1.0" standalone="no"?>
<!DOCTYPE svg PUBLIC "-//W3C//DTD SVG 20010904//EN"
 "http://www.w3.org/TR/2001/REC-SVG-20010904/DTD/svg10.dtd">
<svg version="1.0" xmlns="http://www.w3.org/2000/svg"
 width="480.000000pt" height="480.000000pt" viewBox="0 0 480.000000 480.000000"
 preserveAspectRatio="xMidYMid meet">
<metadata>
Created by potrace 1.11, written by Peter Selinger 2001-2013
</metadata>
<g transform="translate(0.000000,480.000000) scale(0.100000,-0.100000)"
fill="#000000" stroke="none">
<path d="M2305 4770 c-44 -15 -233 -80 -420 -144 -187 -64 -347 -119 -355
-122 -8 -3 75 -37 185 -76 110 -38 216 -76 235 -83 19 -8 94 -35 165 -61 207
-73 480 -171 614 -221 68 -25 129 -46 135 -48 6 -1 25 -7 41 -14 33 -14 144
-52 160 -55 6 -2 27 -10 48 -19 21 -9 45 -13 55 -10 9 3 14 2 9 -2 -9 -11 59
-38 96 -38 16 0 24 -3 17 -7 -6 -4 15 -15 47 -25 32 -10 78 -27 102 -37 24
-10 51 -20 60 -22 15 -3 25 -6 71 -24 18 -7 16 -6 68 -21 31 -8 47 -9 56 -2 7
6 16 8 19 4 4 -3 7 -1 7 5 0 7 9 12 19 12 11 0 21 5 23 12 3 7 15 13 29 13 37
2 82 17 98 32 7 8 20 12 27 9 20 -8 44 4 44 20 0 8 6 14 13 14 18 0 67 24 67
33 0 4 18 7 39 7 22 0 46 6 53 14 8 7 29 17 48 21 19 4 40 14 48 22 8 8 23 12
33 10 11 -3 19 -1 19 4 0 12 116 12 154 -1 17 -5 61 -12 99 -16 44 -4 67 -10
67 -18 0 -7 -83 -45 -187 -86 -104 -40 -262 -102 -353 -137 -91 -36 -174 -73
-185 -83 -11 -10 -39 -24 -62 -32 -24 -7 -43 -17 -43 -22 0 -4 -7 -6 -15 -2
-8 3 -15 1 -15 -5 0 -6 -4 -7 -10 -4 -5 3 -10 0 -10 -8 0 -15 -20 -27 -43 -27
-7 0 -6 5 3 11 13 9 13 10 0 6 -13 -3 -15 -60 -18 -420 -2 -404 -3 -416 -22
-422 -34 -11 -75 -16 -65 -8 6 5 10 154 10 411 0 264 -3 401 -10 398 -5 -2 -9
-9 -7 -16 3 -11 0 -11 -12 0 -9 7 -16 8 -16 3 0 -5 -12 -10 -27 -11 -16 -1
-30 -7 -31 -12 -2 -6 -8 -8 -13 -4 -5 3 -9 0 -9 -5 0 -6 -8 -11 -19 -11 -14 0
-17 -6 -13 -25 4 -25 -11 -35 -23 -15 -4 6 -11 8 -16 5 -5 -4 -9 1 -9 9 0 9
-5 16 -11 16 -11 0 -210 -76 -709 -271 -129 -50 -244 -93 -255 -96 -11 -2
-117 34 -235 80 -118 47 -255 101 -305 120 -219 85 -556 216 -745 289 -113 44
-243 94 -290 113 -47 18 -201 79 -342 134 -270 105 -326 130 -295 131 10 0 31
7 47 15 70 36 318 38 354 3 9 -9 53 -28 98 -43 46 -15 108 -40 138 -56 30 -16
63 -29 72 -29 9 0 20 -4 23 -10 7 -11 64 -38 175 -82 81 -32 188 -79 318 -139
45 -22 90 -39 100 -39 9 0 58 -21 107 -45 50 -25 99 -45 111 -45 11 0 29 -9
39 -20 10 -11 24 -20 30 -20 7 0 44 -16 81 -35 38 -19 78 -35 89 -35 11 0 34
-8 50 -18 17 -10 75 -38 130 -61 55 -23 119 -51 143 -62 26 -12 63 -19 95 -18
41 1 47 3 27 9 -24 8 -24 8 -2 9 12 1 22 6 22 11 0 6 18 10 40 10 28 0 40 4
40 14 0 16 21 26 56 26 13 0 24 4 24 8 0 4 21 13 48 21 26 7 56 16 67 21 11 4
35 13 53 20 17 7 32 16 32 21 0 5 9 9 20 9 11 0 20 4 20 9 0 5 18 12 40 16 22
4 40 11 40 17 0 6 9 8 20 5 11 -3 20 -1 20 4 0 5 9 9 20 9 11 0 20 7 20 15 0
20 41 29 95 22 25 -4 47 -2 50 3 4 6 11 8 16 5 5 -4 9 0 9 8 0 13 -103 55
-530 214 -80 30 -161 61 -180 68 -19 8 -82 32 -140 54 -846 320 -967 366
-1180 450 l-124 49 -286 -98 c-157 -54 -339 -117 -405 -140 -66 -23 -160 -56
-210 -72 -50 -17 -91 -32 -93 -33 -2 -2 4 -135 12 -296 9 -162 23 -436 31
-609 9 -173 22 -448 30 -610 8 -162 21 -434 30 -605 8 -170 19 -401 25 -513 5
-112 10 -219 10 -238 l0 -35 142 -68 c197 -95 1652 -797 2026 -979 l74 -35 66
33 c57 28 473 228 917 440 66 31 343 164 615 295 272 130 532 255 578 276 l82
38 0 75 c0 42 7 221 15 399 8 177 31 696 50 1152 19 457 40 919 45 1028 14
274 16 252 -22 264 -18 6 -179 61 -358 123 -179 61 -403 138 -498 171 -166 57
-333 114 -695 238 -94 32 -251 86 -347 119 -96 33 -235 81 -309 106 -74 25
-139 46 -145 45 -6 0 -47 -13 -91 -29z m1372 -1282 c-3 -7 -5 -2 -5 12 0 14 2
19 5 13 2 -7 2 -19 0 -25z m-279 -233 c0 -29 0 -29 -8 -5 -4 14 -8 45 -8 70
l0 45 9 -40 c4 -22 8 -53 7 -70z m307 -505 c17 -6 16 -7 -8 -12 l-27 -5 2 316
3 316 5 -304 c5 -291 6 -304 25 -311z m-308 328 c-2 -24 -4 -5 -4 42 0 47 2
66 4 43 2 -24 2 -62 0 -85z m-1537 -141 l315 -122 3 -418 c1 -229 -1 -417 -5
-417 -8 0 -172 73 -462 206 l-176 81 -3 396 c-1 219 1 397 5 397 5 0 150 -56
323 -123z m1536 -315 c-5 -7 -10 -11 -10 -10 -1 2 0 64 4 138 l5 135 5 -125
c3 -69 1 -131 -4 -138z m394 154 c0 -2 -7 -7 -16 -10 -8 -3 -12 -2 -9 4 6 10
25 14 25 6z m-265 -106 c-3 -5 -12 -10 -18 -10 -7 0 -6 4 3 10 19 12 23 12 15
0z"/>
<path d="M1585 2899 c-4 -11 -5 -22 -3 -24 2 -2 55 -22 118 -44 87 -32 116
-38 122 -29 18 28 -1 43 -102 79 -124 45 -127 45 -135 18z"/>
<path d="M1586 2763 c-4 -9 -3 -20 1 -24 4 -4 89 -37 188 -73 l180 -64 9 24
c4 14 6 26 5 28 -10 7 -352 126 -364 126 -7 0 -16 -8 -19 -17z"/>
<path d="M1590 2464 l0 -145 106 -49 c58 -28 111 -50 118 -50 8 0 10 41 6 151
l-5 151 -57 23 c-31 13 -81 32 -112 44 l-56 21 0 -146z"/>
<path d="M1916 2524 c-11 -28 -7 -32 41 -48 60 -21 62 -20 72 7 8 20 4 24 -38
39 -59 21 -68 21 -75 2z"/>
<path d="M1917 2423 c-21 -20 -4 -41 44 -56 66 -22 66 -22 71 8 4 21 0 26 -40
40 -50 17 -65 18 -75 8z"/>
<path d="M1917 2313 c-20 -20 -4 -41 41 -54 61 -18 63 -18 73 8 7 19 3 23 -38
37 -51 18 -66 19 -76 9z"/>
<path d="M1916 2203 c-12 -31 -5 -41 42 -54 61 -18 63 -18 73 8 7 20 2 23 -51
41 -51 18 -59 18 -64 5z"/>
</g>
</svg>
